<?xml version="1.0" standalone="no"?>
<!DOCTYPE svg PUBLIC "-//W3C//DTD SVG 1.1//EN" "http://www.w3.org/Graphics/SVG/1.1/DTD/svg11.dtd">
<svg xmlns="http://www.w3.org/2000/svg">
<metadata>Copyright (C) 2014 by original authors @ fontello.com</metadata>
<defs>
<font id="holistic" horiz-adv-x="1000" >
<font-face font-family="holistic" font-weight="400" font-stretch="normal" units-per-em="1000" ascent="850" descent="-150" />
<missing-glyph horiz-adv-x="1000" />
<glyph glyph-name="plus" unicode="&#xe800;" d="m550 400q30 0 30-50t-30-50l-210 0 0-210q0-30-50-30t-50 30l0 210-210 0q-30 0-30 50t30 50l210 0 0 210q0 30 50 30t50-30l0-210 210 0z" horiz-adv-x="580" />
<glyph glyph-name="products-rd" unicode="&#xe801;" d="m938 535c-24 58-59 109-103 153-44 44-96 79-153 104-60 25-123 38-188 38s-128-13-188-38c-57-25-109-59-153-104-44-44-79-95-103-153-26-59-38-123-38-188s13-128 38-187c24-58 59-109 103-154 44-44 96-79 153-103 60-25 123-38 188-38s128 13 188 38c57 24 109 59 153 103s79 96 103 154c26 59 38 122 38 187 0 65-13 129-38 188z m-26-364c-22-54-55-103-97-145-42-42-90-74-144-97-56-24-116-36-177-36-61 0-121 12-177 36-54 23-102 56-144 97s-74 91-97 145c-24 56-36 115-36 177 0 61 12 120 35 176 23 54 56 103 98 145s90 74 144 97c56 24 115 36 177 36 61 0 120-12 177-36 54-23 102-56 144-97 42-42 74-91 97-145 24-56 36-115 36-176 0-62-12-121-36-177z m-473-88l-206 206 251 250 6 3h202v-202l-7-9-246-248z m-155 206l155-155 217 217v155h-155l-217-217z" horiz-adv-x="987" />
<glyph glyph-name="delete" unicode="&#xe802;" d="m650 450l0 0c0 0 0 0 0 0 0-4 0-4 0-4l-23-478h0c0-36-45-95-281-95-232 0-278 54-282 95h0l-23 478c0 0 0 0 0 0 0 0 0 0 0 0l0 0h0c0 4 5 9 9 13 32-32 150-36 296-36s268 4 295 36c5 0 5-4 9-9l0 0 0 0z m41 182v-55c0-13-14-22-32-31-54-28-173-41-313-41-137 0-260 18-314 41-18 9-32 18-32 31v55c0 27 77 54 186 68v118c0 18 19 32 37 32h232c18 0 36-14 36-36v-114c118-9 200-36 200-68l0 0z m-264 118c0 18-4 36-4 36h-46-77-45c-5 0-5-18-5-36v-45l9 0c27 0 55 4 87 4 27 0 54 0 81 0v41l0 0z" horiz-adv-x="727" />
<glyph glyph-name="duplicate" unicode="&#xe803;" d="m806 603h-188v59l-183 188h-435v-747h371v-247h623v559l-188 188 0 0z m0-88l100-100h-100v100l0 0z m-371 247l100-100h-100v100l0 0z m-370 23h312v-188h188v-435h-500v623l0 0z m864-864h-494v188h189v429h123v-188h188v-429l-6 0z" horiz-adv-x="1000" />
<glyph glyph-name="edit" unicode="&#xe804;" d="m5-140l110 15-95 95-15-110z m30 235l-10-85 130-130 85 10 575 575-205 205-575-575z m795 745c-5 10-15 10-25 10-10 0-20-5-25-10l-140-140 205-205 140 140c15 15 15 40 0 50l-155 155 0 0z" horiz-adv-x="1000" />
<glyph glyph-name="page" unicode="&#xe805;" d="m506 850h-506v-1000h794v706l-288 294 0 0z m12-129l135-136h-135v136l0 0z m-436-789v836h371v-247h253v-589h-624l0 0z" horiz-adv-x="824" />
<glyph glyph-name="search" unicode="&#xe806;" d="m400 850c222 0 406-183 406-406 0-94-34-183-89-255l266-267c17-16 17-44 0-61-16-17-44-17-61 0l-266 267c-73-56-162-89-256-89-222 0-406 183-406 405s184 406 406 406l0 0z m0-750c189 0 344 156 344 344s-155 345-344 345-339-156-339-345 150-344 339-344l0 0z" horiz-adv-x="1000" />
<glyph glyph-name="settings" unicode="&#xe807;" d="m938 436l-95 14c-5 29-19 57-29 81l62 76c15 14 15 38 0 57l-43 43c-14 14-38 19-52 10l-81-53c-38 24-81 43-124 53l-14 95c-5 24-24 38-48 38h-57c-19 0-38-14-43-33l-14-96c-38-14-71-28-100-47l-81 57c-14 14-38 10-52-5l-43-43c-14-14-19-38-5-52l57-81c-19-29-33-62-43-100l-95-14c-24-5-38-24-38-43v-57c0-19 14-38 33-43l96-14c9-29 19-58 33-86l-62-76c-14-15-14-38 0-57l43-43c14-15 38-19 52-10l86 53c33-24 76-43 119-53l14-95c5-19 19-33 43-33h57c19 0 38 14 43 33l14 95c39 10 72 24 100 43l81-57c19-14 39-10 58 5l42 43c15 14 19 38 5 57l-57 81c19 33 33 66 43 100l95 14c19 5 33 19 33 43v57c0 19-14 38-33 43l0 0z m-447-257c-100 0-181 81-181 181 0 100 81 181 181 181 100 0 180-81 180-181 0-96-80-181-180-181l0 0z" horiz-adv-x="1000" />
<glyph glyph-name="tree" unicode="&#xe808;" d="m535 320c4-9 13-13 17-22 13-13 26-31 26-44 0-17 0-34 5-47-61-9-105-57-105-118 0-61 52-113 113-113 66 0 113 52 113 113 0 48-30 91-74 105 0 13-4 34-4 56 0 30-22 57-35 74-4 9-8 13-13 22 0 0-4 4-4 4 17 0 35 0 48 0 13 0 26 0 35 0 34-4 82-26 108-52 18-22 22-44 31-74 0-9 4-17 8-26-43-18-74-57-74-104 0-61 53-114 114-114 65 0 113 53 113 114 0 60-44 108-105 113-4 8-4 21-8 30-9 30-14 65-44 96-35 34-91 65-143 69-13 0-27 0-40 0-30 0-60 0-87 13-13 9-17 13-21 22l0 4c0 5 0 9 0 13l0 0c48 13 87 57 87 109 0 61-52 113-113 113-61 0-113-52-113-113 0-52 39-100 91-109l0 0c0-8 0-13 0-21 0-9-4-18-22-26-26-13-52-13-87-13-13 0-26 0-39 0-48-5-109-35-143-70-26-30-35-65-44-96 0-8-4-13-4-17-5 0-13 0-18 0-65 0-113-52-113-113 0-61 53-113 113-113 66 0 113 52 113 113 0 39-17 74-52 96 5 8 5 17 9 26 13 21 17 43 35 65 26 26 74 52 108 52 13 0 27 0 40 0 17 0 30 0 47 0 0 0-4-4-4-4-4-5-9-9-17-18-13-17-35-43-35-74 0-13 0-26-4-39-61-4-105-52-105-113 0-61 52-113 113-113 65 0 113 52 113 113 0 48-30 91-74 105 0 13 0 30 5 43 0 13 13 30 26 48 4 9 13 13 17 22 9 13 18 21 26 30 9 13 18 22 26 30 5-8 13-13 18-21 8-5 17-18 26-26l0 0z m122-231c0-35-31-65-66-65-34 0-65 30-65 65 0 35 31 65 65 65 35 0 66-30 66-65l0 0z m252 0c0-35-31-65-65-65-35 0-66 30-66 65 0 35 31 65 66 65 34 0 65-30 65-65l0 0z m-487 474c0 35 30 65 65 65s65-30 65-65c0-35-26-61-61-65l-8 0c-35 4-61 30-61 65l0 0z m-248-474c0-35-30-65-65-65-35 0-65 30-65 65 0 35 30 65 65 65 35 0 65-30 65-65l0 0z m243 0c0-35-30-65-65-65-35 0-65 30-65 65 0 35 30 65 65 65 35 0 65-30 65-65l0 0z" horiz-adv-x="957" />
<glyph glyph-name="products" unicode="&#xe809;" d="m440-166l-456 456 556 552 12 8h448v-448l-16-20-544-548z m-344 456l344-344 480 480v344h-344l-480-480z" horiz-adv-x="1000" />
<glyph glyph-name="monetise" unicode="&#xe80a;" d="m1026 294c0-18-13-35-30-35h-196c-17 0-30 13-30 30l-35 257-70-661c0-18-13-26-30-31 0 0 0 0-5 0-13 0-26 9-30 26l-104 383-105-200c-4-13-17-17-30-17-13 0-26 13-26 26l-52 208h-253c-17 0-30 14-30 35 0 18 13 35 30 35h270c13 0 26-9 30-26l35-148 100 200c5 13 18 18 31 18 13 0 26-14 26-27l82-300 83 757c9 13 22 26 39 26 18 0 31-13 31-30l65-492h169c18 0 35-13 35-34l0 0z m178 30h-113c-21 0-34-13-34-30 0-18 17-31 34-31h113c22 0 35 13 35 31 5 13-13 30-35 30l0 0z m222 0h-117c-18 0-35-13-35-30 0-18 17-31 35-31h117c18 0 35 13 35 31 0 13-17 30-35 30l0 0z" horiz-adv-x="1522" />
<glyph glyph-name="organise" unicode="&#xe80b;" d="m1041 759c-123 123-327 123-450 0l-518-495c-96-96-96-246 0-341s254-96 350 0l518 495c68 68 68 178 0 246-68 68-182 68-250 0l-391-378c-14-13-14-36 0-50 14-13 36-13 50 0l391 378c41 41 109 41 150 0 41-41 41-105 0-146l-518-500c-68-68-182-68-250 0-68 68-68 178 0 246l513 491c96 95 255 95 350 0 96-96 96-246 0-341l-386-373c-14-14-14-37 0-50 14-14 36-14 50 0l391 377c127 123 127 318 0 441l0 0z" horiz-adv-x="1136" />
<glyph glyph-name="dashboard" unicode="&#xe80c;" d="m120 595h915c65 0 120 55 120 130 0 70-55 125-120 125h-915c-65 0-120-55-120-130 0-70 55-125 120-125l0 0z m45 205c45 0 80-35 80-80s-35-75-80-75c-45 0-80 35-80 80s35 75 80 75l0 0z m870-315h-915c-65 0-120-60-120-130s55-130 120-130h915c65 0 120 55 120 130s-55 130-120 130l0 0z m-290-210c-45 0-80 35-80 80s35 80 80 80 80-35 80-80c0-45-35-80-80-80l0 0z m290-155h-915c-65 0-120-55-120-130 0-70 55-130 120-130h915c65 0 120 55 120 130s-55 130-120 130l0 0z m-540-210c-45 0-80 35-80 80 0 45 35 80 80 80 45 0 80-35 80-80 0-45-35-80-80-80l0 0z" horiz-adv-x="1150" />
<glyph glyph-name="personalise" unicode="&#xe80d;" d="m129 145c-83-81-13-164-123-287-49-56 204-39 330 84 53 53 38 129-19 185-57 56-135 70-188 18l0 0z m915 702c-42 41-511-333-651-470-69-68-93-105-114-132-9-12 3-15 9-18 27-14 46-27 71-51 25-25 38-44 53-70 2-6 6-18 18-9 28 21 65 44 134 112 140 137 523 596 480 638l0 0z" horiz-adv-x="1045" />
<glyph glyph-name="close" unicode="&#xe80e;" d="m983-117c-11-11-22-16-39-16-16 0-27 5-38 16l-389 400-389-400c-11-11-28-16-39-16-17 0-28 5-39 16-22 23-22 56 0 78l394 400-383 378c-22 22-22 55 0 78 22 22 56 22 78 0l372-378 378 378c22 22 55 22 78 0 22-23 22-56 0-78l-373-378 395-400c17-22 17-55-6-78z" horiz-adv-x="1056" />
<glyph glyph-name="holistic" unicode="&#xe80f;" d="m500-175l-440 255v505l440 255 440-255v-510l-440-250z m-340 310l340-195 340 195v390l-340 200-340-200v-390z" horiz-adv-x="1000" />
<glyph glyph-name="notification" unicode="&#xe810;" d="m670 150c-60 103-23 160-47 347-20 170-150 216-216 230v123h-67v-120c-67-13-197-63-217-230-26-190 7-247-53-350-17-27-37-50-53-67v-40h706v40c-16 20-36 40-53 67l0 0z m-290-117c47 0 83-36 83-80s-36-80-83-80-83 34-83 77 36 83 83 83z" horiz-adv-x="733" />
<glyph glyph-name="organise-rd" unicode="&#xe811;" d="m952 540c-25 58-60 111-105 156-45 45-97 80-156 104-60 26-124 39-190 39s-130-13-190-39c-59-24-111-59-156-104-45-45-80-98-105-156-25-60-38-124-38-190s13-130 38-191c25-58 60-110 105-155 45-45 97-80 156-105 60-26 124-39 190-39s130 13 190 39c59 25 111 60 156 105s80 97 105 155c25 61 38 125 38 191s-13 130-38 190z m-26-370c-23-54-57-104-99-146s-92-76-146-99c-57-24-118-36-180-36-62 0-122 12-179 36-55 23-104 57-147 99-42 42-75 92-99 146-24 57-36 118-36 180 0 62 12 122 36 179 24 55 57 104 99 147 43 42 92 75 147 98 56 24 117 37 179 37 62 0 123-13 180-37 54-23 104-56 146-98 42-43 75-92 99-147 24-57 36-117 36-179 0-62-12-123-36-180z m-220 357c-53 54-142 54-196 0l-225-215c-41-42-41-107 0-148s111-42 152 0l226 215c29 30 29 77 0 107-30 30-79 30-109 0l-170-164c-6-6-6-16 0-22 6-6 16-6 22 0l170 164c17 18 47 18 65 0 18-18 18-45 0-63l-225-218c-30-29-80-29-109 0-30 30-30 78 0 107l223 214c42 41 111 41 153 0s41-107 0-149l-169-162c-5-6-5-16 0-21 6-6 16-6 22 0l170 164c56 53 56 138 0 191l0 0z" horiz-adv-x="1001" />
<glyph glyph-name="dashboard-rd" unicode="&#xe812;" d="m952 540c-25 58-60 111-105 156-45 45-97 80-156 104-60 26-124 39-190 39s-130-13-190-39c-59-24-111-59-156-104-45-45-80-98-105-156-25-60-38-124-38-190s13-130 38-191c25-58 60-110 105-155 45-45 97-80 156-105 60-26 124-39 190-39s130 13 190 39c59 25 111 60 156 105s80 97 105 155c25 61 38 125 38 191s-13 130-38 190z m-26-370c-23-54-57-104-99-146s-92-76-146-99c-57-24-118-36-180-36-62 0-122 12-179 36-55 23-104 57-147 99-42 42-75 92-99 146-24 57-36 118-36 180 0 62 12 122 36 179 24 55 57 104 99 147 43 42 92 75 147 98 56 24 117 37 179 37 62 0 123-13 180-37 54-23 104-56 146-98 42-43 75-92 99-147 24-57 36-117 36-179 0-62-12-123-36-180z m-621 283h392c27 0 51 23 51 55 0 30-24 54-51 54h-392c-28 0-51-24-51-56 0-30 23-53 51-53l0 0z m19 87c20 0 35-15 35-34s-15-32-35-32c-19 0-34 15-34 34s15 32 34 32l0 0z m373-134h-392c-28 0-51-26-51-56 0-30 23-56 51-56h392c27 0 51 24 51 56 0 32-24 56-51 56l0 0z m-124-90c-20 0-35 15-35 34s15 34 35 34 34-15 34-34-15-34-34-34l0 0z m124-67h-392c-28 0-51-23-51-55 0-30 23-56 51-56h392c27 0 51 24 51 56 0 32-24 55-51 55l0 0z m-232-89c-19 0-34 14-34 34 0 19 15 34 34 34 20 0 35-15 35-34 0-19-15-34-35-34l0 0z" horiz-adv-x="1001" />
<glyph glyph-name="personalise-rd" unicode="&#xe813;" d="m952 540c-25 58-60 111-105 156-45 45-97 80-156 104-60 26-124 39-190 39s-130-13-190-39c-59-24-111-59-156-104-45-45-80-98-105-156-25-60-38-124-38-190s13-130 38-191c25-58 60-110 105-155 45-45 97-80 156-105 60-26 124-39 190-39s130 13 190 39c59 25 111 60 156 105s80 97 105 155c25 61 38 125 38 191s-13 130-38 190z m-26-370c-23-54-57-104-99-146s-92-76-146-99c-57-24-118-36-180-36-62 0-122 12-179 36-55 23-104 57-147 99-42 42-75 92-99 146-24 57-36 118-36 180 0 62 12 122 36 179 24 55 57 104 99 147 43 42 92 75 147 98 56 24 117 37 179 37 62 0 123-13 180-37 54-23 104-56 146-98 42-43 75-92 99-147 24-57 36-117 36-179 0-62-12-123-36-180z m-604 92c-37-37-6-74-55-130-23-25 92-18 149 38 24 24 17 58-9 84s-61 32-85 8l0 0z m415 318c-19 19-232-151-295-213-32-31-42-47-52-60-4-5 2-7 4-8 13-6 21-12 33-23 11-11 17-20 23-32 2-2 3-8 9-4 12 10 29 20 61 51 63 62 236 270 217 289l0 0z" horiz-adv-x="1001" />
<glyph glyph-name="searchendise-rd" unicode="&#xe814;" d="m441 595c109 0 199-90 199-199 0-46-16-90-43-125l130-131c9-8 9-22 0-30-8-8-21-8-30 0l-130 131c-36-27-79-44-126-44-109 0-198 90-198 199s89 199 198 199l0 0z m0-368c93 0 169 77 169 169s-76 169-169 169-166-76-166-169 74-169 166-169l0 0z m49-362c-65 0-129 13-188 38-58 24-110 59-155 104-44 45-79 96-104 154-25 60-38 124-38 189s13 129 38 189c25 58 60 110 104 154 45 45 97 80 155 104 59 25 123 38 188 38s129-13 189-38c58-24 110-59 155-104 44-44 79-96 104-154 25-60 38-124 38-189s-13-129-38-189c-25-58-60-110-104-154s-97-80-155-104c-60-25-123-38-189-38z m0 942c-61 0-121-12-178-36-54-23-103-56-145-98-42-42-75-91-98-145-24-56-36-116-36-178 0-62 12-122 36-178 23-54 56-103 98-145 42-42 91-75 145-98 57-24 117-36 178-36 62 0 122 12 178 36 55 23 104 56 146 98s75 91 98 145c23 56 36 116 36 178 0 62-13 122-36 178-23 54-56 103-98 145-42 42-91 75-146 98-56 24-116 36-178 36z" horiz-adv-x="981" />
<glyph glyph-name="monetise-rd" unicode="&#xe815;" d="m696 326c0-7-5-12-14-12h-45c-7 0-14 5-14 12s6 12 14 12h45c9 0 16-7 14-12z m-99 14h-67l-26 195c0 7-5 12-12 12s-12-5-16-10l-33-301-32 119c0 5-5 11-11 11-5 0-10-2-12-7l-40-80-13 59c-2 7-7 10-13 10h-107c-7 0-12-7-12-14 0-8 5-13 12-13h101l20-83c0-5 6-11 11-11s10 2 12 7l41 80 42-152c1-7 7-11 12-11 2 0 2 0 2 0 7 2 12 5 12 12l27 263 14-102c0-7 5-12 12-12h78c7 0 12 7 12 14 0 9-7 14-14 14z m173-2h-46c-7 0-14-5-14-12s7-12 14-12h46c7 0 14 5 14 12 0 5-7 12-14 12z m206 9c0-65-13-128-38-187-24-58-59-109-103-154s-96-79-153-103c-60-25-123-38-188-38s-128 13-188 38c-57 24-109 59-153 103-44 45-79 96-103 154-26 59-38 122-38 187s13 129 38 188c24 58 59 109 103 153 44 45 96 79 153 104 60 25 123 38 188 38s128-13 188-38c57-25 109-59 153-104 44-44 79-95 103-153 25-59 38-123 38-188z m-28 1c0 61-12 120-36 176-22 54-55 103-97 145-42 41-90 74-144 97-56 24-116 36-177 36-61 0-121-12-177-36-54-23-102-56-144-97s-74-91-97-145c-24-56-36-115-36-176 0-62 12-121 35-177 23-54 56-103 98-144s90-75 144-98c56-24 116-36 177-36 61 0 121 12 177 36 54 23 102 56 144 98 42 41 74 90 97 144 24 56 36 115 36 177z" horiz-adv-x="987" />
</font>
</defs>
</svg>
